<svg version="1.1" viewBox="0.0 0.0 549.4724409448819 351.15748031496065" fill="none" stroke="none" stroke-linecap="square" stroke-miterlimit="10" xmlns:xlink="http://www.w3.org/1999/xlink" xmlns="http://www.w3.org/2000/svg"><clipPath id="p.0"><path d="m0 0l549.4724 0l0 351.15747l-549.4724 0l0 -351.15747z" clip-rule="nonzero"/></clipPath><g clip-path="url(#p.0)"><path fill="#000000" fill-opacity="0.0" d="m0 0l549.4724 0l0 351.15747l-549.4724 0z" fill-rule="evenodd"/><path fill="#000000" fill-opacity="0.0" d="m13.895013 17.68504l0 151.55905" fill-rule="evenodd"/><path stroke="#000000" stroke-width="12.0" stroke-linejoin="round" stroke-linecap="butt" d="m13.895013 17.68504l0 151.55905" fill-rule="evenodd"/><path fill="#000000" fill-opacity="0.0" d="m13.897637 169.25722l173.03937 1.2598419" fill-rule="evenodd"/><path stroke="#000000" stroke-width="12.0" stroke-linejoin="round" stroke-linecap="butt" d="m13.897637 169.25722l173.03937 1.2598419" fill-rule="evenodd"/><path fill="#000000" fill-opacity="0.0" d="m186.93701 170.52493l-2.5196838 161.66928" fill-rule="evenodd"/><path stroke="#000000" stroke-width="12.0" stroke-linejoin="round" stroke-linecap="butt" d="m186.93701 170.52493l-2.5196838 161.66928" fill-rule="evenodd"/><path fill="#000000" fill-opacity="0.0" d="m184.41733 332.1942l173.03937 1.2598572" fill-rule="evenodd"/><path stroke="#000000" stroke-width="12.0" stroke-linejoin="round" stroke-linecap="butt" d="m184.41733 332.1942l173.03937 1.2598572" fill-rule="evenodd"/><path fill="#000000" fill-opacity="0.0" d="m359.97638 170.52493l-2.5196838 161.66928" fill-rule="evenodd"/><path stroke="#000000" stroke-width="12.0" stroke-linejoin="round" stroke-linecap="butt" d="m359.97638 170.52493l-2.5196838 161.66928" fill-rule="evenodd"/><path fill="#000000" fill-opacity="0.0" d="m359.97638 169.25722l173.03937 1.2598419" fill-rule="evenodd"/><path stroke="#000000" stroke-width="12.0" stroke-linejoin="round" stroke-linecap="butt" d="m359.97638 169.25722l173.03937 1.2598419" fill-rule="evenodd"/><path fill="#000000" fill-opacity="0.0" d="m534.2756 24.005249l-1.2598267 146.51968" fill-rule="evenodd"/><path stroke="#000000" stroke-width="12.0" stroke-linejoin="round" stroke-linecap="butt" d="m534.2756 24.005249l-1.2598267 146.51968" fill-rule="evenodd"/><path fill="#000000" fill-opacity="0.0" d="m13.895013 12.632545l524.22046 3.7795277" fill-rule="evenodd"/><path stroke="#000000" stroke-width="12.0" stroke-linejoin="round" stroke-linecap="butt" d="m13.895013 12.632545l524.22046 3.7795277" fill-rule="evenodd"/><path fill="#000000" fill-opacity="0.0" d="m30.307087 30.32021l127.59056 0l0 110.519684l-127.59056 0z" fill-rule="evenodd"/><path fill="#000000" d="m92.229004 132.24583q-12.765625 0 -20.453125 -4.84375q-7.671875 -4.84375 -7.671875 -14.828125q0 -5.28125 1.8125 -8.0625q1.828125 -2.796875 5.390625 -2.796875q2.59375 0 4.21875 1.34375q1.625 1.34375 1.625 3.46875q0 1.90625 -0.28125 3.359375q0 0.375 -0.140625 1.34375q-0.140625 0.953125 -0.140625 2.015625q0 4.3125 4.359375 6.421875q4.375 2.109375 12.25 2.109375q8.15625 0 12.765625 -2.921875q4.609375 -2.921875 4.609375 -8.203125q0 -3.265625 -2.125 -5.609375q-2.109375 -2.359375 -5.28125 -3.9375q-3.15625 -1.59375 -8.921875 -3.890625q-7.390625 -2.890625 -12.046875 -5.484375q-4.65625 -2.59375 -7.96875 -7.046875q-3.3125 -4.46875 -3.3125 -11.09375q0 -6.90625 3.6875 -12.281254q3.703125 -5.375 10.65625 -8.34375q6.96875 -2.984375 16.375 -2.984375q7.015625 0 12.859375 2.0625q5.859375 2.0625 9.359375 6.296875q3.515625 4.21875 3.515625 10.359379q0 6.046875 -1.828125 9.125q-1.828125 3.0625 -5.375 3.0625q-2.5 0 -4.1875 -1.53125q-1.671875 -1.53125 -1.671875 -3.65625q0 -1.8125 0.296875 -3.359375q0.28125 -2.875 0.28125 -3.640625q0 -4.03125 -3.9375 -6.140629q-3.9375 -2.125 -9.796875 -2.125q-8.25 0 -12.625 3.03125q-4.359375 3.0312538 -4.359375 8.500004q0 3.640625 2.25 6.234375q2.265625 2.59375 5.625 4.328125q3.359375 1.71875 9.40625 4.125q7.296875 2.96875 11.703125 5.375q4.421875 2.390625 7.53125 6.53125q3.125 4.125 3.125 10.171875q0 11.328125 -8.59375 17.421875q-8.578125 6.09375 -22.984375 6.09375z" fill-rule="nonzero"/><path fill="#000000" fill-opacity="0.0" d="m204.62993 188.20998l136.40944 0l0 128.85039l-136.40944 0z" fill-rule="evenodd"/><path fill="#000000" d="m296.49652 208.54184q2.5 0 4.21875 1.203125q1.734375 1.1875 1.734375 2.921875q0 3.078125 -1.921875 4.953125q-1.921875 1.859375 -5.46875 1.859375q-5.5625 0 -8.453125 0.09375q-0.1875 1.15625 -1.71875 10.375q-1.734375 10.265625 -2.109375 12.578125l-2.015625 12.578125q-2.125 14.109375 -3.375 23.609375q2.03125 -0.09375 5.484375 -0.09375q5.078125 0 6.90625 1.34375q1.828125 1.34375 1.828125 4.03125q0 2.5 -1.96875 4.234375q-1.96875 1.71875 -5.515625 1.71875q-2.40625 0 -7.59375 -0.1875q-4.796875 -0.203125 -6.328125 -0.203125q-6.046875 0 -13.25 1.0625q-3.1718597 0.484375 -4.5156097 0.484375q-2.109375 0 -3.546875 -1.15625q-1.4375 -1.15625 -1.4375 -3.359375q0 -3.453125 3.0625 -5.375q3.078125 -1.921875 8.64061 -2.015625l4.515625 -0.09375l0.28125 -2.125q2.3125 -15.359375 3.359375 -21.6875l2.125 -12.578125q1.90625 -11.140625 3.453125 -22.9375l-8.0625 0.09375q-3.46875 0 -4.765625 -1.109375q-1.28125 -1.109375 -1.28125 -3.125q0 -6.515625 9.40625 -7.0q4.40625 -0.1875 10.75 -0.1875l17.5625 0.09375z" fill-rule="nonzero"/><path fill="#000000" fill-opacity="0.0" d="m368.1811 47.05512l156.62994 0l0 91.55905l-156.62994 0z" fill-rule="evenodd"/><path fill="#000000" d="m401.69672 62.228245q0 0.96875 -0.40625 1.453125q-0.390625 0.4687462 -1.296875 0.4687462q-0.0625 0.671875 -0.28125 2.34375q-0.328125 2.234375 -0.359375 2.484375q-2.84375 21.21875 -11.875 21.21875q-2.65625 0 -4.140625 -1.5q-1.484375 -1.5 -1.484375 -3.78125q0 -4.0625 3.453125 -7.171875q3.453125 -3.125 9.09375 -5.171875q0.34375 -2.28125 0.546875 -4.0625l0.578125 -4.843746q-1.921875 -0.1875 -3.59375 -0.1875q-4.453125 0 -6.5625 0.8749962q-2.109375 0.859375 -2.109375 2.8125q0 0.953125 0.640625 2.078125q0.1875 0.3125 0.1875 0.671875q0 0.671875 -0.6875 1.203125q-0.6875 0.515625 -1.484375 0.515625q-1.015625 0 -1.5625 -0.859375q-0.90625 -1.46875 -0.90625 -3.421875q0 -7.687496 13.453125 -7.687496q3.890625 0 6.96875 0.765625q1.828125 0.453125 1.828125 1.796875zm-13.796875 24.546871q1.5625 0 3.125 -2.359375q1.578125 -2.375 2.765625 -8.296875q-7.8125 3.421875 -7.8125 8.390625q0 1.078125 0.515625 1.671875q0.515625 0.59375 1.40625 0.59375zm23.526062 0.25q-4.265625 0 -6.828125 -1.609375q-2.546875 -1.609375 -2.546875 -4.9375q0 -1.765625 0.59375 -2.6875q0.609375 -0.9375 1.796875 -0.9375q0.875 0 1.40625 0.453125q0.546875 0.4375 0.546875 1.15625q0 0.625 -0.09375 1.109375q0 0.125 -0.046875 0.453125q-0.046875 0.3125 -0.046875 0.671875q0 1.4375 1.453125 2.140625q1.453125 0.703125 4.078125 0.703125q2.71875 0 4.25 -0.96875q1.546875 -0.984375 1.546875 -2.734375q0 -1.09375 -0.703125 -1.875q-0.703125 -0.78125 -1.765625 -1.3125q-1.046875 -0.53125 -2.96875 -1.296875q-2.46875 -0.96875 -4.03125 -1.828125q-1.546875 -0.859375 -2.65625 -2.34375q-1.09375 -1.5 -1.09375 -3.703125q0 -2.296875 1.234375 -4.093746q1.234375 -1.796875 3.546875 -2.78125q2.328125 -1.0 5.453125 -1.0q2.34375 0 4.296875 0.6875q1.953125 0.6875 3.109375 2.109375q1.171875 1.40625 1.171875 3.4531212q0 2.015625 -0.609375 3.046875q-0.609375 1.015625 -1.78125 1.015625q-0.84375 0 -1.40625 -0.515625q-0.546875 -0.515625 -0.546875 -1.21875q0 -0.609375 0.09375 -1.125q0.09375 -0.953125 0.09375 -1.203125q0 -1.34375 -1.3125 -2.0468712q-1.3125 -0.71875 -3.265625 -0.71875q-2.75 0 -4.203125 1.0156212q-1.453125 1.015625 -1.453125 2.828125q0 1.21875 0.75 2.09375q0.75 0.859375 1.859375 1.4375q1.125 0.5625 3.140625 1.375q2.4375 0.984375 3.90625 1.78125q1.46875 0.796875 2.5 2.1875q1.046875 1.375 1.046875 3.390625q0 3.765625 -2.859375 5.796875q-2.859375 2.03125 -7.65625 2.03125zm23.863525 -0.09375q-2.84375 0 -5.140625 -1.28125q-2.28125 -1.28125 -3.625 -3.75q-1.34375 -2.484375 -1.34375 -5.9375q0 -4.875 1.765625 -8.578125q1.78125 -3.7187462 4.84375 -5.734371q3.0625 -2.015625 6.765625 -2.015625q2.84375 0 5.125 1.28125q2.296875 1.28125 3.640625 3.7656212q1.34375 2.484375 1.34375 5.9375q0 4.859375 -1.78125 8.578125q-1.765625 3.703125 -4.828125 5.71875q-3.046875 2.015625 -6.765625 2.015625zm0.328125 -3.765625q2.484375 0 4.390625 -1.53125q1.90625 -1.546875 2.921875 -4.28125q1.03125 -2.734375 1.03125 -6.1875q0 -3.8125 -1.609375 -5.78125q-1.59375 -1.9687462 -4.109375 -1.9687462q-2.46875 0 -4.359375 1.5312462q-1.890625 1.515625 -2.953125 4.25q-1.046875 2.734375 -1.046875 6.21875q0 3.8125 1.59375 5.78125q1.609375 1.96875 4.140625 1.96875zm21.04956 3.765625q-1.1875 0 -1.703125 -0.515625q-0.5 -0.53125 -0.5 -2.015625q0 -0.984375 0.1875 -2.390625q0.1875 -1.40625 0.671875 -4.265625q0.0625 -0.375 0.515625 -3.109375q0.453125 -2.734375 0.796875 -5.75q0.328125 -2.5625 0.328125 -3.84375q0 -1.4374962 -1.0625 -1.4374962q-0.796875 0 -2.0 0.8593712q-1.203125 0.84375 -2.578125 2.703125q-0.453125 0.59375 -0.984375 0.59375q-0.453125 0 -0.796875 -0.421875q-0.328125 -0.4375 -0.328125 -0.984375q0 -0.53125 0.1875 -1.03125q0.203125 -0.5 0.703125 -1.203125q1.578125 -2.1406212 3.484375 -3.3124962q1.921875 -1.171875 4.046875 -1.171875q1.75 0 2.625 1.09375q0.890625 1.09375 0.890625 3.171875q0 1.8437462 -0.515625 5.374996q1.59375 -4.734375 4.0625 -7.187496q2.46875 -2.453125 5.796875 -2.453125q2.625 0 3.953125 1.5q1.328125 1.484375 1.328125 3.9843712q0 1.40625 -0.421875 3.421875l-1.953125 9.140625q-0.3125 1.609375 -0.3125 2.75q0 1.359375 0.625 2.03125q0.625 0.671875 1.734375 0.671875q1.0625 0 2.0625 -0.703125q1.015625 -0.71875 2.390625 -2.34375q0.390625 -0.453125 0.859375 -0.453125q0.421875 0 0.65625 0.390625q0.25 0.375 0.25 1.046875q0 1.25 -0.609375 1.984375q-1.671875 2.015625 -3.3125 2.953125q-1.625 0.921875 -3.40625 0.921875q-2.71875 0 -4.265625 -1.609375q-1.53125 -1.625 -1.53125 -4.34375q0 -1.046875 0.171875 -2.296875q0.171875 -1.25 0.59375 -3.171875l1.28125 -5.859375q0.0625 -0.28125 0.21875 -1.015625q0.171875 -0.734375 0.265625 -1.390625q0.09375 -0.65625 0.09375 -1.296875q0 -1.03125 -0.578125 -1.640625q-0.578125 -0.6093712 -1.625 -0.6093712q-1.921875 0 -3.84375 2.0624962q-1.921875 2.046875 -3.5625 6.609375q-1.625 4.546875 -2.546875 11.65625q-0.234375 1.625 -0.671875 2.265625q-0.421875 0.640625 -1.671875 0.640625zm31.486816 0q-0.734375 0 -1.296875 -0.515625q-0.5625 -0.53125 -0.5625 -1.40625q0 -0.703125 0.453125 -1.53125l13.40625 -25.187496q0.390625 -0.734375 0.875 -1.078125q0.5 -0.359375 1.015625 -0.359375q0.734375 0 1.265625 0.59375q0.53125 0.59375 0.53125 1.453125q0 0.703125 -0.359375 1.3125l-13.6875 25.703121q-0.296875 0.5 -0.734375 0.765625q-0.421875 0.25 -0.90625 0.25z" fill-rule="nonzero"/><path fill="#000000" d="m401.69672 100.22824q0 0.96875 -0.40625 1.453125q-0.390625 0.46875 -1.296875 0.46875q-0.0625 0.671875 -0.28125 2.34375q-0.328125 2.234375 -0.359375 2.484375q-2.84375 21.21875 -11.875 21.21875q-2.65625 0 -4.140625 -1.5q-1.484375 -1.5 -1.484375 -3.78125q0 -4.0625 3.453125 -7.171875q3.453125 -3.125 9.09375 -5.171875q0.34375 -2.28125 0.546875 -4.0625l0.578125 -4.84375q-1.921875 -0.1875 -3.59375 -0.1875q-4.453125 0 -6.5625 0.875q-2.109375 0.859375 -2.109375 2.8125q0 0.953125 0.640625 2.078125q0.1875 0.3125 0.1875 0.671875q0 0.671875 -0.6875 1.203125q-0.6875 0.515625 -1.484375 0.515625q-1.015625 0 -1.5625 -0.859375q-0.90625 -1.46875 -0.90625 -3.421875q0 -7.6875 13.453125 -7.6875q3.890625 0 6.96875 0.765625q1.828125 0.453125 1.828125 1.796875zm-13.796875 24.546875q1.5625 0 3.125 -2.359375q1.578125 -2.375 2.765625 -8.296875q-7.8125 3.421875 -7.8125 8.390625q0 1.078125 0.515625 1.671875q0.515625 0.59375 1.40625 0.59375zm28.869812 -26.9375q0.828125 0 1.40625 0.40625q0.578125 0.390625 0.578125 0.96875q0 1.015625 -0.640625 1.640625q-0.640625 0.625 -1.828125 0.625q-1.859375 0 -2.8125 0.03125q-0.0625 0.390625 -0.578125 3.453125q-0.578125 3.421875 -0.703125 4.203125l-0.671875 4.1875q-0.703125 4.703125 -1.125 7.875q0.671875 -0.03125 1.828125 -0.03125q1.6875 0 2.296875 0.453125q0.609375 0.4375 0.609375 1.328125q0 0.84375 -0.65625 1.421875q-0.65625 0.5625 -1.828125 0.5625q-0.8125 0 -2.53125 -0.0625q-1.609375 -0.0625 -2.109375 -0.0625q-2.015625 0 -4.421875 0.359375q-1.0625 0.15625 -1.5 0.15625q-0.703125 0 -1.1875 -0.390625q-0.484375 -0.375 -0.484375 -1.109375q0 -1.15625 1.015625 -1.796875q1.03125 -0.640625 2.890625 -0.671875l1.5 -0.03125l0.09375 -0.703125q0.78125 -5.125 1.125 -7.234375l0.703125 -4.1875q0.640625 -3.71875 1.15625 -7.65625l-2.6875 0.03125q-1.15625 0 -1.59375 -0.359375q-0.421875 -0.375 -0.421875 -1.046875q0 -2.171875 3.140625 -2.328125q1.46875 -0.0625 3.578125 -0.0625l5.859375 0.03125zm10.496277 27.1875q-4.265625 0 -6.828125 -1.609375q-2.546875 -1.609375 -2.546875 -4.9375q0 -1.765625 0.59375 -2.6875q0.609375 -0.9375 1.796875 -0.9375q0.875 0 1.40625 0.453125q0.546875 0.4375 0.546875 1.15625q0 0.625 -0.09375 1.109375q0 0.125 -0.046875 0.453125q-0.046875 0.3125 -0.046875 0.671875q0 1.4375 1.453125 2.140625q1.453125 0.703125 4.078125 0.703125q2.71875 0 4.25 -0.96875q1.546875 -0.984375 1.546875 -2.734375q0 -1.09375 -0.703125 -1.875q-0.703125 -0.78125 -1.765625 -1.3125q-1.046875 -0.53125 -2.96875 -1.296875q-2.46875 -0.96875 -4.03125 -1.828125q-1.546875 -0.859375 -2.65625 -2.34375q-1.09375 -1.5 -1.09375 -3.703125q0 -2.296875 1.234375 -4.09375q1.234375 -1.796875 3.546875 -2.78125q2.328125 -1.0 5.453125 -1.0q2.34375 0 4.296875 0.6875q1.953125 0.6875 3.109375 2.109375q1.171875 1.40625 1.171875 3.453125q0 2.015625 -0.609375 3.046875q-0.609375 1.015625 -1.78125 1.015625q-0.84375 0 -1.40625 -0.515625q-0.546875 -0.515625 -0.546875 -1.21875q0 -0.609375 0.09375 -1.125q0.09375 -0.953125 0.09375 -1.203125q0 -1.34375 -1.3125 -2.046875q-1.3125 -0.71875 -3.265625 -0.71875q-2.75 0 -4.203125 1.015625q-1.453125 1.015625 -1.453125 2.828125q0 1.21875 0.75 2.09375q0.75 0.859375 1.859375 1.4375q1.125 0.5625 3.140625 1.375q2.4375 0.984375 3.90625 1.78125q1.46875 0.796875 2.5 2.1875q1.046875 1.375 1.046875 3.390625q0 3.765625 -2.859375 5.796875q-2.859375 2.03125 -7.65625 2.03125zm38.051025 -19.328125q0 2.71875 -1.421875 5.0q-1.40625 2.265625 -4.09375 3.71875q-2.6875 1.4375 -6.390625 1.6875l-1.375 7.71875q-0.8125 4.4375 -4.359375 4.4375q-1.953125 0 -3.609375 -1.15625q-1.640625 -1.140625 -2.640625 -3.5q-0.984375 -2.375 -0.984375 -5.84375q0 -6.484375 2.09375 -11.015625q2.09375 -4.53125 5.625 -6.78125q3.546875 -2.265625 7.796875 -2.265625q3.015625 0 5.109375 1.0625q2.09375 1.0625 3.171875 2.875q1.078125 1.796875 1.078125 4.0625zm-11.328125 7.109375q6.546875 -0.828125 6.546875 -6.8125q0 -2.109375 -1.390625 -3.4375q-1.390625 -1.328125 -4.296875 -1.328125q-3.296875 0 -5.75 2.078125q-2.4375 2.078125 -3.765625 5.78125q-1.328125 3.6875 -1.328125 8.421875q0 1.984375 0.390625 3.53125q0.40625 1.53125 1.03125 2.375q0.625 0.84375 1.1875 0.84375q0.8125 0 1.21875 -2.203125l1.0625 -6.046875q-1.25 -0.1875 -1.09375 -0.15625q-0.953125 -0.171875 -1.25 -0.59375q-0.28125 -0.4375 -0.28125 -1.109375q0 -0.703125 0.390625 -1.109375q0.40625 -0.421875 1.109375 -0.421875q0.328125 0 0.484375 0.03125q0.765625 0.125 1.1875 0.15625q0.40625 -2.5 1.171875 -6.6875q0.203125 -1.09375 0.890625 -1.546875q0.6875 -0.46875 1.609375 -0.46875q1.0625 0 1.515625 0.40625q0.46875 0.390625 0.46875 1.25q0 0.515625 -0.0625 0.84375l-1.046875 6.203125z" fill-rule="nonzero"/></g></svg>