<svg version="1.1" viewBox="0.0 0.0 549.4724409448819 351.15748031496065" fill="none" stroke="none" stroke-linecap="square" stroke-miterlimit="10" xmlns:xlink="http://www.w3.org/1999/xlink" xmlns="http://www.w3.org/2000/svg"><clipPath id="p.0"><path d="m0 0l549.4724 0l0 351.15747l-549.4724 0l0 -351.15747z" clip-rule="nonzero"/></clipPath><g clip-path="url(#p.0)"><path fill="#000000" fill-opacity="0.0" d="m0 0l549.4724 0l0 351.15747l-549.4724 0z" fill-rule="evenodd"/><path fill="#000000" fill-opacity="0.0" d="m13.895013 17.68504l0 151.55905" fill-rule="evenodd"/><path stroke="#000000" stroke-width="12.0" stroke-linejoin="round" stroke-linecap="butt" d="m13.895013 17.68504l0 151.55905" fill-rule="evenodd"/><path fill="#000000" fill-opacity="0.0" d="m13.897637 169.25722l173.03937 1.2598419" fill-rule="evenodd"/><path stroke="#000000" stroke-width="12.0" stroke-linejoin="round" stroke-linecap="butt" d="m13.897637 169.25722l173.03937 1.2598419" fill-rule="evenodd"/><path fill="#000000" fill-opacity="0.0" d="m186.93701 170.52493l-2.5196838 161.66928" fill-rule="evenodd"/><path stroke="#000000" stroke-width="12.0" stroke-linejoin="round" stroke-linecap="butt" d="m186.93701 170.52493l-2.5196838 161.66928" fill-rule="evenodd"/><path fill="#000000" fill-opacity="0.0" d="m184.41733 332.1942l173.03937 1.2598572" fill-rule="evenodd"/><path stroke="#000000" stroke-width="12.0" stroke-linejoin="round" stroke-linecap="butt" d="m184.41733 332.1942l173.03937 1.2598572" fill-rule="evenodd"/><path fill="#000000" fill-opacity="0.0" d="m359.97638 170.52493l-2.5196838 161.66928" fill-rule="evenodd"/><path stroke="#000000" stroke-width="12.0" stroke-linejoin="round" stroke-linecap="butt" d="m359.97638 170.52493l-2.5196838 161.66928" fill-rule="evenodd"/><path fill="#000000" fill-opacity="0.0" d="m359.97638 169.25722l173.03937 1.2598419" fill-rule="evenodd"/><path stroke="#000000" stroke-width="12.0" stroke-linejoin="round" stroke-linecap="butt" d="m359.97638 169.25722l173.03937 1.2598419" fill-rule="evenodd"/><path fill="#000000" fill-opacity="0.0" d="m534.1286 20.33071l-1.1338501 150.20473" fill-rule="evenodd"/><path stroke="#000000" stroke-width="12.0" stroke-linejoin="round" stroke-linecap="butt" d="m534.1286 20.33071l-1.1338501 150.20473" fill-rule="evenodd"/><path fill="#000000" fill-opacity="0.0" d="m13.895013 12.632545l524.22046 3.7795277" fill-rule="evenodd"/><path stroke="#000000" stroke-width="12.0" stroke-linejoin="round" stroke-linecap="butt" d="m13.895013 12.632545l524.22046 3.7795277" fill-rule="evenodd"/><path fill="#000000" fill-opacity="0.0" d="m28.244095 17.632545l105.543304 0l0 84.88189l-105.543304 0z" fill-rule="evenodd"/><path fill="#000000" d="m79.76166 88.58817q-8.5 0 -13.625 -3.234375q-5.125 -3.234375 -5.125 -9.890625q0 -3.515625 1.21875 -5.375q1.21875 -1.859375 3.578125 -1.859375q1.734375 0 2.8125 0.90625q1.09375 0.890625 1.09375 2.296875q0 1.28125 -0.1875 2.234375q0 0.265625 -0.09375 0.90625q-0.09375 0.640625 -0.09375 1.34375q0 2.875 2.90625 4.28125q2.90625 1.40625 8.15625 1.40625q5.453125 0 8.515625 -1.953125q3.078125 -1.953125 3.078125 -5.46875q0 -2.171875 -1.40625 -3.734375q-1.40625 -1.578125 -3.53125 -2.625q-2.109375 -1.0625 -5.953125 -2.59375q-4.921875 -1.921875 -8.03125 -3.640625q-3.09375 -1.734375 -5.3125 -4.703125q-2.203125 -2.984375 -2.203125 -7.40625q0 -4.609375 2.453125 -8.1875q2.46875 -3.59375 7.109375 -5.5625q4.640625 -1.984375 10.921875 -1.984375q4.671875 0 8.578125 1.375q3.90625 1.375 6.234375 4.1875q2.34375 2.8125 2.34375 6.90625q0 4.03125 -1.21875 6.078125q-1.21875 2.046875 -3.59375 2.046875q-1.65625 0 -2.78125 -1.015625q-1.125 -1.03125 -1.125 -2.4375q0 -1.21875 0.203125 -2.234375q0.1875 -1.921875 0.1875 -2.4375q0 -2.6875 -2.625 -4.09375q-2.625 -1.40625 -6.53125 -1.40625q-5.5 0 -8.421875 2.015625q-2.90625 2.015625 -2.90625 5.65625q0 2.4375 1.5 4.171875q1.515625 1.71875 3.75 2.875q2.25 1.15625 6.28125 2.75q4.859375 1.984375 7.796875 3.59375q2.953125 1.59375 5.03125 4.34375q2.078125 2.75 2.078125 6.78125q0 7.5625 -5.734375 11.625q-5.71875 4.0625 -15.328125 4.0625z" fill-rule="nonzero"/><path fill="#000000" fill-opacity="0.0" d="m190.41733 262.7533l163.55905 0l0 63.748016l-163.55905 0z" fill-rule="evenodd"/><path fill="#000000" d="m225.28831 277.92642q0 0.96875 -0.40625 1.453125q-0.390625 0.46875 -1.296875 0.46875q-0.0625 0.671875 -0.28125 2.34375q-0.328125 2.234375 -0.359375 2.484375q-2.84375 21.21875 -11.875 21.21875q-2.65625 0 -4.140625 -1.5q-1.484375 -1.5 -1.484375 -3.78125q0 -4.0625 3.453125 -7.171875q3.453125 -3.125 9.09375 -5.171875q0.34375 -2.28125 0.546875 -4.0625l0.578125 -4.84375q-1.921875 -0.1875 -3.59375 -0.1875q-4.453125 0 -6.5625 0.875q-2.109375 0.859375 -2.109375 2.8125q0 0.953125 0.640625 2.078125q0.1875 0.3125 0.1875 0.671875q0 0.671875 -0.6875 1.203125q-0.6875 0.515625 -1.484375 0.515625q-1.015625 0 -1.5625 -0.859375q-0.90625 -1.46875 -0.90625 -3.421875q0 -7.6875 13.453125 -7.6875q3.890625 0 6.96875 0.765625q1.828125 0.453125 1.828125 1.796875zm-13.796875 24.546875q1.5625 0 3.125 -2.359375q1.578125 -2.375 2.765625 -8.296875q-7.8125 3.421875 -7.8125 8.390625q0 1.078125 0.515625 1.671875q0.515625 0.59375 1.40625 0.59375zm18.276047 0.15625q-1.828125 0 -2.96875 -1.4375q-1.125 -1.4375 -1.125 -3.78125q0 -2.546875 1.171875 -4.828125q1.1875 -2.296875 3.15625 -3.6875q1.96875 -1.390625 4.171875 -1.390625q0.71875 0 0.953125 0.265625q0.234375 0.265625 0.390625 0.96875q0.609375 -0.125 1.34375 -0.125q0.78125 0 1.1875 0.390625q0.421875 0.375 0.421875 1.078125q0 0.75 -0.328125 2.5625q-0.34375 1.953125 -0.546875 3.734375q-0.1875 1.78125 -0.1875 3.984375q0 1.21875 -0.5 1.75q-0.484375 0.515625 -1.609375 0.515625q-1.09375 0 -1.625 -0.515625q-0.515625 -0.53125 -0.515625 -1.71875l0.03125 -0.515625q-1.0 2.75 -3.421875 2.75zm1.25 -3.234375q0.890625 0 1.625 -1.234375q0.734375 -1.25 1.3125 -4.453125l0.609375 -3.234375q-1.3125 0.03125 -2.4375 1.015625q-1.109375 0.96875 -1.78125 2.578125q-0.671875 1.59375 -0.671875 3.375q0 0.96875 0.359375 1.46875q0.375 0.484375 0.984375 0.484375zm13.249786 3.234375q-1.34375 0 -2.125 -1.0q-0.765625 -1.015625 -0.953125 -3.25q-0.390625 -4.484375 -0.390625 -7.84375l0 -1.125q0.03125 -1.046875 0.578125 -1.453125q0.546875 -0.421875 1.640625 -0.421875q0.828125 0 1.21875 0.375q0.40625 0.359375 0.40625 1.21875q0 3.6875 0.453125 9.5625q1.375 -2.359375 2.375 -4.328125q1.015625 -1.96875 2.203125 -5.203125q0.34375 -0.953125 0.921875 -1.28125q0.578125 -0.34375 1.4375 -0.34375q1.765625 0 1.765625 1.109375q0 0.390625 -0.25 1.0625q-2.59375 6.046875 -4.90625 9.75q-1.125 1.828125 -2.15625 2.5q-1.015625 0.671875 -2.21875 0.671875zm13.596283 0q-1.828125 0 -2.96875 -1.4375q-1.125 -1.4375 -1.125 -3.78125q0 -2.546875 1.171875 -4.828125q1.1875 -2.296875 3.15625 -3.6875q1.96875 -1.390625 4.171875 -1.390625q0.71875 0 0.953125 0.265625q0.234375 0.265625 0.390625 0.96875q0.609375 -0.125 1.34375 -0.125q0.78125 0 1.1875 0.390625q0.421875 0.375 0.421875 1.078125q0 0.75 -0.328125 2.5625q-0.34375 1.953125 -0.546875 3.734375q-0.1875 1.78125 -0.1875 3.984375q0 1.21875 -0.5 1.75q-0.484375 0.515625 -1.609375 0.515625q-1.09375 0 -1.625 -0.515625q-0.515625 -0.53125 -0.515625 -1.71875l0.03125 -0.515625q-1.0 2.75 -3.421875 2.75zm1.25 -3.234375q0.890625 0 1.625 -1.234375q0.734375 -1.25 1.3125 -4.453125l0.609375 -3.234375q-1.3125 0.03125 -2.4375 1.015625q-1.109375 0.96875 -1.78125 2.578125q-0.671875 1.59375 -0.671875 3.375q0 0.96875 0.359375 1.46875q0.375 0.484375 0.984375 0.484375zm15.671661 3.9375q-1.65625 0 -2.546875 -0.765625q-0.875 -0.765625 -0.875 -1.71875q0 -0.84375 0.609375 -1.453125q0.609375 -0.609375 1.796875 -0.609375q0.40625 0 0.96875 0.09375q0.5625 0.078125 0.84375 0.109375q-0.03125 -0.828125 -0.375 -1.5625q-0.328125 -0.75 -0.84375 -1.4375q-0.5 -0.6875 -0.953125 -1.203125q-0.984375 1.890625 -1.96875 3.140625q-0.96875 1.25 -2.125 2.375q-0.578125 0.578125 -1.21875 0.578125q-0.515625 0 -0.828125 -0.375q-0.328125 -0.375 -0.328125 -0.90625q0 -0.640625 0.453125 -1.1875l0.421875 -0.515625q1.75 -2.171875 2.65625 -3.578125q0.578125 -0.9375 1.15625 -2.203125q0.59375 -1.28125 1.5625 -3.5q0.609375 -1.40625 2.53125 -1.40625q0.890625 0 1.234375 0.171875q0.359375 0.15625 0.359375 0.5q0 0.1875 -0.125 0.609375q-0.125 0.421875 -0.359375 0.828125q-0.578125 1.15625 -0.578125 1.953125q0 0.484375 0.328125 1.0625q0.34375 0.578125 1.0625 1.4375q1.015625 1.34375 1.546875 2.296875q0.53125 0.9375 0.53125 2.046875q0 1.34375 -0.625 2.546875q-0.625 1.203125 -1.75 1.9375q-1.125 0.734375 -2.5625 0.734375zm12.608032 -0.703125q-3.03125 0 -4.75 -1.765625q-1.703125 -1.78125 -1.703125 -4.6875q0 -2.59375 1.015625 -4.546875q1.03125 -1.953125 2.65625 -3.0q1.640625 -1.0625 3.421875 -1.0625q1.765625 0 2.734375 1.046875q0.984375 1.03125 0.984375 2.65625q0 1.34375 -0.59375 2.28125q-0.59375 0.921875 -1.546875 0.921875q-0.609375 0 -0.984375 -0.28125q-0.359375 -0.296875 -0.359375 -0.8125q0 -0.21875 0.0625 -0.5q0.0625 -0.296875 0.09375 -0.421875q0.15625 -0.484375 0.15625 -0.890625q0 -0.421875 -0.21875 -0.640625q-0.203125 -0.234375 -0.578125 -0.234375q-0.734375 0 -1.375 0.65625q-0.640625 0.65625 -1.03125 1.78125q-0.375 1.125 -0.375 2.46875q0 1.8125 0.75 2.765625q0.75 0.9375 2.125 0.9375q1.09375 0 2.0 -0.640625q0.90625 -0.640625 1.8125 -1.890625q0.375 -0.46875 0.859375 -0.46875q0.421875 0 0.65625 0.390625q0.234375 0.375 0.234375 1.046875q0 1.15625 -0.546875 1.984375q-0.859375 1.34375 -2.265625 2.125q-1.40625 0.78125 -3.234375 0.78125zm19.912415 -10.6875q0.703125 0 1.1875 0.5q0.5 0.5 0.5 1.234375q0 0.40625 -0.1875 0.890625q-0.515625 1.1875 -1.453125 1.984375q-0.921875 0.796875 -2.03125 0.796875q-0.90625 0 -1.53125 -0.640625q-0.609375 -0.640625 -0.609375 -1.71875q0 -0.609375 0.0625 -1.3125q0.0625 -0.515625 0.0625 -0.703125q0 -0.265625 -0.125 -0.390625q-0.109375 -0.125 -0.265625 -0.125q-0.453125 0 -1.21875 1.078125q-0.765625 1.0625 -1.53125 2.828125q-0.765625 1.75 -1.25 3.703125q-0.34375 1.546875 -0.796875 2.0625q-0.453125 0.5 -1.46875 0.5q-1.21875 0 -1.71875 -1.28125q-0.5 -1.28125 -0.5 -4.09375q0 -4.15625 1.1875 -7.90625q0.296875 -0.921875 0.953125 -1.34375q0.65625 -0.4375 1.828125 -0.4375q0.640625 0 0.890625 0.15625q0.265625 0.15625 0.265625 0.609375q0 0.515625 -0.484375 2.296875q-0.3125 1.28125 -0.515625 2.25q-0.1875 0.953125 -0.3125 2.359375q1.0625 -2.75 2.375 -4.46875q1.3125 -1.734375 2.546875 -2.46875q1.25 -0.734375 2.28125 -0.734375q0.921875 0 1.421875 0.53125q0.5 0.515625 0.5 1.546875q0 0.609375 -0.359375 2.296875l0.296875 0zm7.324402 -6.5q-1.34375 0 -2.015625 -0.609375q-0.671875 -0.625 -0.671875 -1.75q0 -1.125 0.875 -1.875q0.890625 -0.75 2.203125 -0.75q1.171875 0 1.90625 0.578125q0.734375 0.578125 0.734375 1.625q0 1.28125 -0.828125 2.03125q-0.828125 0.75 -2.203125 0.75zm-3.078125 17.1875q-1.015625 0 -1.40625 -0.40625q-0.375 -0.421875 -0.375 -1.3125q0 -0.265625 0.0625 -0.90625q0.5 -5.84375 1.6875 -10.65625q0.265625 -0.984375 0.84375 -1.375q0.59375 -0.40625 1.90625 -0.40625q1.375 0 1.375 1.109375q0 0.171875 -0.0625 0.609375q-1.4375 6.84375 -1.71875 11.484375q-0.0625 1.03125 -0.609375 1.453125q-0.546875 0.40625 -1.703125 0.40625zm18.432129 -9.921875q0 2.53125 -1.171875 4.796875q-1.15625 2.25 -3.09375 3.65625q-1.9375 1.40625 -4.140625 1.46875q-0.421875 6.1875 -1.890625 10.328125q-1.46875 4.140625 -4.328125 4.140625q-1.71875 0 -2.546875 -1.25q-0.84375 -1.25 -0.84375 -3.453125q0 -3.140625 1.453125 -7.3125q1.4375 -4.171875 4.4375 -9.203125q0 -4.671875 -0.0625 -6.5q-0.03125 -0.921875 0.734375 -1.46875q0.765625 -0.546875 1.921875 -0.546875q0.671875 0 0.96875 0.28125q0.3125 0.265625 0.34375 1.0625q0 0.8125 0.03125 1.1875q1.03125 -1.28125 2.015625 -1.828125q1.0 -0.5625 2.109375 -0.5625q1.796875 0 2.921875 1.4375q1.140625 1.4375 1.140625 3.765625zm-8.25 6.859375q1.15625 -0.265625 2.125 -1.265625q0.984375 -1.015625 1.546875 -2.5q0.578125 -1.484375 0.578125 -3.125q0 -0.953125 -0.390625 -1.453125q-0.375 -0.5 -1.015625 -0.5q-1.15625 0 -2.78125 2.4375q-0.03125 1.40625 -0.03125 4.125q0 1.46875 -0.03125 2.28125zm-6.109375 14.390625q0.859375 0 1.4375 -3.765625q0.578125 -3.75 0.734375 -9.34375q-1.375 3.1875 -2.171875 6.09375q-0.796875 2.921875 -0.796875 4.90625q0 1.03125 0.234375 1.5625q0.234375 0.546875 0.5625 0.546875zm21.592773 -23.359375q-0.0625 1.609375 -0.0625 2.5q0 2.296875 0.234375 3.59375q0.25 1.296875 0.8125 1.859375q0.5625 0.5625 1.546875 0.5625q0.515625 0 1.21875 -0.3125q0.703125 -0.328125 1.28125 -0.84375q0.34375 -0.3125 0.703125 -0.3125q0.375 0 0.609375 0.4375q0.25 0.421875 0.25 1.03125q0 0.609375 -0.25 1.1875q-0.234375 0.578125 -0.703125 0.953125q-1.671875 1.375 -3.78125 1.375q-3.046875 0 -4.453125 -2.53125q-1.40625 -2.546875 -1.40625 -6.65625q0 -1.40625 0.09375 -2.84375l-1.25 0q-0.953125 0 -1.296875 -0.34375q-0.328125 -0.359375 -0.328125 -1.125q0 -1.796875 1.4375 -1.796875l1.828125 0q0.546875 -3.515625 1.65625 -6.421875q1.125 -2.921875 2.703125 -4.640625q1.59375 -1.734375 3.421875 -1.734375q1.34375 0 2.109375 1.1875q0.765625 1.1875 0.765625 2.96875q0 4.96875 -4.15625 8.640625l3.578125 0q0.515625 0 0.734375 0.234375q0.234375 0.21875 0.234375 0.828125q0 2.203125 -3.625 2.203125l-3.90625 0zm3.390625 -12.984375q-0.46875 0 -1.0625 1.203125q-0.59375 1.1875 -1.125 3.328125q-0.53125 2.125 -0.875 4.71875q1.890625 -1.640625 2.828125 -3.671875q0.9375 -2.03125 0.9375 -3.6875q0 -1.890625 -0.703125 -1.890625z" fill-rule="nonzero"/><path fill="#000000" fill-opacity="0.0" d="m389.12598 103.732285l127.590576 0l0 60.125977l-127.590576 0z" fill-rule="evenodd"/><path fill="#000000" d="m422.6416 118.90541q0 0.96875 -0.40625 1.453125q-0.390625 0.46875 -1.296875 0.46875q-0.0625 0.671875 -0.28125 2.34375q-0.328125 2.234375 -0.359375 2.484375q-2.84375 21.21875 -11.875 21.21875q-2.65625 0 -4.140625 -1.5q-1.484375 -1.5 -1.484375 -3.78125q0 -4.0625 3.453125 -7.171875q3.453125 -3.125 9.09375 -5.171875q0.34375 -2.28125 0.546875 -4.0625l0.578125 -4.84375q-1.921875 -0.1875 -3.59375 -0.1875q-4.453125 0 -6.5625 0.875q-2.109375 0.859375 -2.109375 2.8125q0 0.953125 0.640625 2.078125q0.1875 0.3125 0.1875 0.671875q0 0.671875 -0.6875 1.203125q-0.6875 0.515625 -1.484375 0.515625q-1.015625 0 -1.5625 -0.859375q-0.90625 -1.46875 -0.90625 -3.421875q0 -7.6875 13.453125 -7.6875q3.890625 0 6.96875 0.765625q1.828125 0.453125 1.828125 1.796875zm-13.796875 24.546875q1.5625 0 3.125 -2.359375q1.578125 -2.375 2.765625 -8.296875q-7.8125 3.421875 -7.8125 8.390625q0 1.078125 0.515625 1.671875q0.515625 0.59375 1.40625 0.59375zm23.526062 0.25q-4.265625 0 -6.828125 -1.609375q-2.546875 -1.609375 -2.546875 -4.9375q0 -1.765625 0.59375 -2.6875q0.609375 -0.9375 1.796875 -0.9375q0.875 0 1.40625 0.453125q0.546875 0.4375 0.546875 1.15625q0 0.625 -0.09375 1.109375q0 0.125 -0.046875 0.453125q-0.046875 0.3125 -0.046875 0.671875q0 1.4375 1.453125 2.140625q1.453125 0.703125 4.078125 0.703125q2.71875 0 4.25 -0.96875q1.546875 -0.984375 1.546875 -2.734375q0 -1.09375 -0.703125 -1.875q-0.703125 -0.78125 -1.765625 -1.3125q-1.046875 -0.53125 -2.96875 -1.296875q-2.46875 -0.96875 -4.03125 -1.828125q-1.546875 -0.859375 -2.65625 -2.34375q-1.09375 -1.5 -1.09375 -3.703125q0 -2.296875 1.234375 -4.09375q1.234375 -1.796875 3.546875 -2.78125q2.328125 -1.0 5.453125 -1.0q2.34375 0 4.296875 0.6875q1.953125 0.6875 3.109375 2.109375q1.171875 1.40625 1.171875 3.453125q0 2.015625 -0.609375 3.046875q-0.609375 1.015625 -1.78125 1.015625q-0.84375 0 -1.40625 -0.515625q-0.546875 -0.515625 -0.546875 -1.21875q0 -0.609375 0.09375 -1.125q0.09375 -0.953125 0.09375 -1.203125q0 -1.34375 -1.3125 -2.046875q-1.3125 -0.71875 -3.265625 -0.71875q-2.75 0 -4.203125 1.015625q-1.453125 1.015625 -1.453125 2.828125q0 1.21875 0.75 2.09375q0.75 0.859375 1.859375 1.4375q1.125 0.5625 3.140625 1.375q2.4375 0.984375 3.90625 1.78125q1.46875 0.796875 2.5 2.1875q1.046875 1.375 1.046875 3.390625q0 3.765625 -2.859375 5.796875q-2.859375 2.03125 -7.65625 2.03125zm23.863525 -0.09375q-2.84375 0 -5.140625 -1.28125q-2.28125 -1.28125 -3.625 -3.75q-1.34375 -2.484375 -1.34375 -5.9375q0 -4.875 1.765625 -8.578125q1.78125 -3.71875 4.84375 -5.734375q3.0625 -2.015625 6.765625 -2.015625q2.84375 0 5.125 1.28125q2.296875 1.28125 3.640625 3.765625q1.34375 2.484375 1.34375 5.9375q0 4.859375 -1.78125 8.578125q-1.765625 3.703125 -4.828125 5.71875q-3.046875 2.015625 -6.765625 2.015625zm0.328125 -3.765625q2.484375 0 4.390625 -1.53125q1.90625 -1.546875 2.921875 -4.28125q1.03125 -2.734375 1.03125 -6.1875q0 -3.8125 -1.609375 -5.78125q-1.59375 -1.96875 -4.109375 -1.96875q-2.46875 0 -4.359375 1.53125q-1.890625 1.515625 -2.953125 4.25q-1.046875 2.734375 -1.046875 6.21875q0 3.8125 1.59375 5.78125q1.609375 1.96875 4.140625 1.96875zm21.04956 3.765625q-1.1875 0 -1.703125 -0.515625q-0.5 -0.53125 -0.5 -2.015625q0 -0.984375 0.1875 -2.390625q0.1875 -1.40625 0.671875 -4.265625q0.0625 -0.375 0.515625 -3.109375q0.453125 -2.734375 0.796875 -5.75q0.328125 -2.5625 0.328125 -3.84375q0 -1.4375 -1.0625 -1.4375q-0.796875 0 -2.0 0.859375q-1.203125 0.84375 -2.578125 2.703125q-0.453125 0.59375 -0.984375 0.59375q-0.453125 0 -0.796875 -0.421875q-0.328125 -0.4375 -0.328125 -0.984375q0 -0.53125 0.1875 -1.03125q0.203125 -0.5 0.703125 -1.203125q1.578125 -2.140625 3.484375 -3.3125q1.921875 -1.171875 4.046875 -1.171875q1.75 0 2.625 1.09375q0.890625 1.09375 0.890625 3.171875q0 1.84375 -0.515625 5.375q1.59375 -4.734375 4.0625 -7.1875q2.46875 -2.453125 5.796875 -2.453125q2.625 0 3.953125 1.5q1.328125 1.484375 1.328125 3.984375q0 1.40625 -0.421875 3.421875l-1.953125 9.140625q-0.3125 1.609375 -0.3125 2.75q0 1.359375 0.625 2.03125q0.625 0.671875 1.734375 0.671875q1.0625 0 2.0625 -0.703125q1.015625 -0.71875 2.390625 -2.34375q0.390625 -0.453125 0.859375 -0.453125q0.421875 0 0.65625 0.390625q0.25 0.375 0.25 1.046875q0 1.25 -0.609375 1.984375q-1.671875 2.015625 -3.3125 2.953125q-1.625 0.921875 -3.40625 0.921875q-2.71875 0 -4.265625 -1.609375q-1.53125 -1.625 -1.53125 -4.34375q0 -1.046875 0.171875 -2.296875q0.171875 -1.25 0.59375 -3.171875l1.28125 -5.859375q0.0625 -0.28125 0.21875 -1.015625q0.171875 -0.734375 0.265625 -1.390625q0.09375 -0.65625 0.09375 -1.296875q0 -1.03125 -0.578125 -1.640625q-0.578125 -0.609375 -1.625 -0.609375q-1.921875 0 -3.84375 2.0625q-1.921875 2.046875 -3.5625 6.609375q-1.625 4.546875 -2.546875 11.65625q-0.234375 1.625 -0.671875 2.265625q-0.421875 0.640625 -1.671875 0.640625z" fill-rule="nonzero"/><path fill="#000000" fill-opacity="0.0" d="m233.40945 186.97375l75.055115 0l0 75.77954l-75.055115 0z" fill-rule="evenodd"/><path fill="#000000" d="m286.70642 203.52313q1.671875 0 2.8125 0.8125q1.15625 0.796875 1.15625 1.9375q0 2.046875 -1.28125 3.296875q-1.265625 1.25 -3.640625 1.25q-3.71875 0 -5.625 0.0625q-0.140625 0.765625 -1.15625 6.921875q-1.15625 6.84375 -1.40625 8.375l-1.34375 8.390625q-1.40625 9.40625 -2.25 15.734375q1.34375 -0.0625 3.65625 -0.0625q3.390625 0 4.609375 0.90625q1.21875 0.890625 1.21875 2.6875q0 1.65625 -1.3125 2.8125q-1.3125 1.15625 -3.6875 1.15625q-1.59375 0 -5.0625 -0.140625q-3.1875 -0.125 -4.21875 -0.125q-4.03125 0 -8.828125 0.703125q-2.109375 0.328125 -3.015625 0.328125q-1.4062653 0 -2.3593903 -0.78125q-0.96875 -0.765625 -0.96875 -2.234375q0 -2.296875 2.0468903 -3.578125q2.0625 -1.28125 5.765625 -1.34375l3.015625 -0.0625l0.1875 -1.40625q1.53125 -10.25 2.234375 -14.46875l1.40625 -8.390625q1.28125 -7.421875 2.3125 -15.296875l-5.375 0.078125q-2.3125 0 -3.171875 -0.734375q-0.859375 -0.75 -0.859375 -2.09375q0 -4.34375 6.265625 -4.671875q2.953125 -0.125 7.171875 -0.125l11.703125 0.0625z" fill-rule="nonzero"/><path fill="#000000" fill-opacity="0.0" d="m408.9685 22.182415l75.055115 0l0 75.779526l-75.055115 0z" fill-rule="evenodd"/><path fill="#000000" d="m478.02023 39.497417q1.984375 0.390625 2.96875 1.359375q1.0 0.953125 1.0 2.234375q0 2.109375 -1.1875 3.078125q-1.1875 0.953125 -3.75 0.75q-5.75 -0.4375 -8.984375 -0.59375q-3.234375 -0.171875 -8.484375 -0.234375q-2.359375 11.78125 -4.34375 23.687496q-0.703125 4.34375 -1.484375 10.078125q-0.765625 5.71875 -1.015625 9.25q-0.125 1.859375 -1.546875 2.84375q-1.40625 0.984375 -3.390625 0.984375q-2.109375 0 -3.265625 -1.015625q-1.140625 -1.03125 -1.140625 -2.6875q0 -1.53125 0.46875 -5.078125q0.484375 -3.5625 1.125 -7.46875q0.703125 -3.90625 1.09375 -6.78125q0.703125 -4.859375 1.59375 -9.656246q0.90625 -4.8125 1.796875 -9.09375q0.1875 -0.96875 0.4375 -2.203125q0.265625 -1.25 0.578125 -2.796875q-6.265625 0.203125 -9.859375 1.03125q-3.578125 0.828125 -5.078125 2.34375q-1.5 1.5 -1.5 3.859375q0 2.171875 1.28125 4.15625q0.25 0.453125 0.25 0.96875q0 1.21875 -1.4375 2.28125q-1.4375 1.046875 -2.984375 1.046875q-1.078125 0 -1.78125 -0.640625q-1.28125 -1.09375 -2.125 -3.109375q-0.828125 -2.015625 -0.828125 -4.578125q0 -5.4375 3.546875 -8.734375q3.5625 -3.296875 10.828125 -4.828125q7.265625 -1.53125 18.65625 -1.53125q7.03125 0 11.21875 0.25q4.203125 0.25 7.34375 0.828125z" fill-rule="nonzero"/><path fill="#000000" fill-opacity="0.0" d="m8.354331 88.5958l145.32285 0l0 81.92126l-145.32285 0z" fill-rule="evenodd"/><path fill="#000000" d="m75.70472 115.2608q0.140625 -0.046875 0.421875 -0.046875q0.828125 0 0.828125 1.046875q0 0.578125 -0.265625 0.984375q-0.25 0.390625 -0.765625 0.484375q-2.1875 0.40625 -4.2968826 0.921875l-0.078125 0.5625q-0.671875 4.734375 -2.6875 7.0q-2.0 2.265625 -4.999996 2.265625q-1.984375 0 -3.078125 -0.96875q-1.09375 -0.96875 -1.09375 -2.484375q0 -2.515625 2.25 -4.484375q2.2656212 -1.96875 6.843746 -3.484375l0.484375 -3.375q0.09375 -0.578125 0.234375 -1.546875q-1.125 2.984375 -2.875 4.453125q-1.75 1.453125 -3.9062462 1.453125q-2.0625 0 -3.15625 -1.25q-1.078125 -1.265625 -1.078125 -3.265625q0 -0.875 0.1875 -1.9375q0.203125 -1.078125 0.609375 -2.90625q0.359375 -1.65625 0.53125 -2.640625q0.1875 -0.984375 0.1875 -1.75q0 -1.15625 -0.890625 -1.15625q-0.6875 0 -1.640625 0.6875q-0.953125 0.6875 -2.0 2.09375q-0.34375 0.46875 -0.75 0.46875q-0.328125 0 -0.59375 -0.328125q-0.25 -0.328125 -0.25 -0.734375q0 -0.75 0.671875 -1.671875q2.453125 -3.375 5.75 -3.375q1.453125 0 2.28125 0.890625q0.828125 0.890625 0.828125 2.625q0 1.25 -0.234375 2.5625q-0.21875 1.296875 -0.671875 3.3125q-0.296875 1.203125 -0.4375 1.9375q-0.140625 0.734375 -0.140625 1.203125q0 1.234375 0.421875 1.765625q0.4375 0.515625 1.515625 0.515625q1.2968712 0 2.6562462 -1.421875q1.359375 -1.4375 2.453125 -4.328125q1.09375 -2.90625 1.5625 -7.109375q0.125 -1.0625 0.546875 -1.5q0.4375 -0.453125 1.265625 -0.453125q1.6718826 0 1.6718826 1.6875q0 0.28125 -0.015625 0.453125q-0.515625 3.578125 -0.9375 6.453125q-0.25 1.734375 -0.53125 3.5625q-0.26563263 1.8125 -0.5312576 3.6875q1.7500076 -0.46875 3.7031326 -0.859375zm-7.2812576 4.3125q-5.796871 2.015625 -5.796871 4.90625q0 0.671875 0.40625 1.109375q0.421875 0.453125 1.1874962 0.453125q3.34375 0 4.1875 -6.296875l0.015625 -0.171875zm11.111443 1.1875q-1.40625 0 -2.40625 -0.703125q-1.0 -0.71875 -1.5 -1.859375q-0.5 -1.15625 -0.5 -2.484375q0 -1.828125 0.671875 -3.25q0.6875 -1.421875 1.859375 -2.21875q1.1875 -0.8125 2.640625 -0.8125q1.421875 0 2.421875 0.703125q1.015625 0.703125 1.515625 1.859375q0.515625 1.15625 0.515625 2.46875q0 1.828125 -0.703125 3.265625q-0.6875 1.421875 -1.890625 2.234375q-1.1875 0.796875 -2.625 0.796875zm0.265625 -2.59375q0.8125 0 1.375 -0.890625q0.578125 -0.890625 0.578125 -2.59375q0 -1.3125 -0.484375 -1.984375q-0.484375 -0.671875 -1.15625 -0.671875q-0.859375 0 -1.421875 0.875q-0.5625 0.875 -0.5625 2.59375q0 1.375 0.46875 2.03125q0.484375 0.640625 1.203125 0.640625zm9.0438385 2.59375q-1.125 0 -1.8125 -0.921875q-0.671875 -0.9375 -0.671875 -2.5625q0 -1.796875 0.234375 -3.296875q0.234375 -1.5 0.796875 -3.1875q0.234375 -0.71875 0.65625 -1.03125q0.4375 -0.3125 1.375 -0.3125q0.53125 0 0.734375 0.171875q0.203125 0.171875 0.203125 0.5q0 0.203125 -0.265625 1.296875q-0.234375 0.890625 -0.375 1.609375q-0.484375 2.515625 -0.484375 3.359375q0 0.5 0.109375 0.703125q0.125 0.203125 0.390625 0.203125q0.359375 0 0.90625 -0.71875q0.5625 -0.734375 1.171875 -2.203125q0.609375 -1.484375 1.171875 -3.578125q0.1875 -0.71875 0.578125 -1.03125q0.40625 -0.3125 1.1875 -0.3125q0.53125 0 0.75 0.28125q0.234375 0.28125 0.234375 0.828125q0 0.59375 -0.09375 1.328125q-0.09375 0.734375 -0.21875 1.5q-0.234375 1.53125 -0.375 2.796875q-0.140625 1.265625 -0.140625 2.875q0 0.90625 -0.375 1.3125q-0.375 0.390625 -1.21875 0.390625q-0.890625 0 -1.234375 -0.46875q-0.34375 -0.46875 -0.34375 -1.8125q0 -0.265625 0.046875 -1.1875q-0.40625 1.6875 -1.21875 2.578125q-0.796875 0.890625 -1.71875 0.890625zm18.243088 -8.015625q0.53125 0 0.90625 0.375q0.375 0.359375 0.375 0.921875q0 0.3125 -0.15625 0.671875q-0.375 0.875 -1.078125 1.484375q-0.6875 0.59375 -1.53125 0.59375q-0.671875 0 -1.140625 -0.46875q-0.46875 -0.484375 -0.46875 -1.296875q0 -0.46875 0.046875 -0.984375q0.046875 -0.390625 0.046875 -0.53125q0 -0.1875 -0.078125 -0.28125q-0.078125 -0.109375 -0.203125 -0.109375q-0.34375 0 -0.921875 0.8125q-0.5625 0.796875 -1.140625 2.125q-0.578125 1.3125 -0.9375 2.78125q-0.265625 1.15625 -0.609375 1.546875q-0.328125 0.375 -1.09375 0.375q-0.921875 0 -1.296875 -0.953125q-0.359375 -0.96875 -0.359375 -3.078125q0 -3.125 0.890625 -5.9375q0.203125 -0.6875 0.6875 -1.015625q0.5 -0.328125 1.390625 -0.328125q0.484375 0 0.671875 0.125q0.203125 0.125 0.203125 0.453125q0 0.390625 -0.359375 1.734375q-0.25 0.953125 -0.390625 1.671875q-0.140625 0.71875 -0.234375 1.78125q0.78125 -2.0625 1.765625 -3.359375q0.984375 -1.296875 1.921875 -1.84375q0.9375 -0.5625 1.703125 -0.5625q0.703125 0 1.0625 0.40625q0.375 0.390625 0.375 1.15625q0 0.453125 -0.265625 1.734375l0.21875 0z" fill-rule="nonzero"/><path fill="#000000" d="m53.49001 144.27643q0.3125 0 0.484375 0.296875q0.1875 0.28125 0.1875 0.796875q0 0.921875 -0.453125 1.484375q-1.34375 1.609375 -2.609375 2.265625q-1.265625 0.640625 -3.03125 0.640625q-1.25 0 -2.3125 -0.3125q-1.046875 -0.3125 -2.5625 -0.9375q-1.375 -0.609375 -2.640625 -0.984375q-1.21875 2.234375 -3.671875 2.234375q-1.34375 0 -2.140625 -0.609375q-0.8125 -0.625 -0.8125 -1.578125q0 -1.171875 1.125 -1.953125q1.125 -0.78125 3.0 -0.78125l0.3125 0l0.4375 -6.984375q0.140625 -2.40625 0.859375 -3.953125q0.71875 -1.5625 2.0 -2.671875q1.09375 -0.96875 2.515625 -1.453125q1.421875 -0.5 3.0 -0.5q2.59375 0 3.984375 1.359375q1.390625 1.34375 1.390625 3.5q0 1.453125 -0.53125 2.359375q-0.53125 0.90625 -1.46875 0.90625q-0.671875 0 -1.0625 -0.328125q-0.375 -0.328125 -0.375 -0.921875q0 -0.21875 0.09375 -0.796875q0.15625 -0.671875 0.15625 -1.203125q0 -1.0 -0.59375 -1.578125q-0.59375 -0.59375 -1.78125 -0.59375q-2.125 0 -3.28125 1.375q-1.140625 1.375 -1.453125 4.328125l-0.546875 5.453125q-0.125 1.140625 -0.3125 1.984375q1.53125 0.265625 3.828125 0.84375q1.34375 0.328125 2.0625 0.484375q0.734375 0.140625 1.28125 0.140625q1.390625 0 2.390625 -0.46875q1.0 -0.46875 1.875 -1.5q0.296875 -0.34375 0.65625 -0.34375zm1.480072 5.484375q-1.359375 0 -2.21875 -1.078125q-0.84375 -1.09375 -0.84375 -2.84375q0 -1.921875 0.875 -3.625q0.890625 -1.71875 2.359375 -2.765625q1.484375 -1.046875 3.140625 -1.046875q0.53125 0 0.703125 0.203125q0.1875 0.203125 0.3125 0.734375q0.453125 -0.09375 1.0 -0.09375q0.578125 0 0.890625 0.296875q0.3125 0.28125 0.3125 0.8125q0 0.546875 -0.234375 1.90625q-0.265625 1.46875 -0.421875 2.8125q-0.140625 1.328125 -0.140625 2.984375q0 0.90625 -0.375 1.3125q-0.359375 0.390625 -1.203125 0.390625q-0.8125 0 -1.21875 -0.390625q-0.390625 -0.40625 -0.390625 -1.296875l0.03125 -0.375q-0.75 2.0625 -2.578125 2.0625zm0.9375 -2.421875q0.671875 0 1.21875 -0.9375q0.5625 -0.9375 1.0 -3.34375l0.453125 -2.421875q-0.984375 0.03125 -1.828125 0.765625q-0.84375 0.71875 -1.34375 1.921875q-0.5 1.203125 -0.5 2.546875q0 0.71875 0.265625 1.09375q0.28125 0.375 0.734375 0.375zm9.007595 2.421875q-0.9218712 0 -1.2968712 -0.953125q-0.359375 -0.96875 -0.359375 -3.078125q0 -3.125 0.8906212 -5.9375q0.203125 -0.6875 0.6875 -1.015625q0.5 -0.328125 1.390625 -0.328125q0.484375 0 0.671875 0.125q0.203125 0.125 0.203125 0.453125q0 0.390625 -0.359375 1.734375q-0.25 0.953125 -0.390625 1.671875q-0.140625 0.71875 -0.234375 1.78125q0.78125 -2.0625 1.765625 -3.359375q0.984375 -1.296875 1.9375 -1.84375q0.953125 -0.5625 1.734375 -0.5625q0.765625 0 1.1562576 0.40625q0.40625 0.390625 0.40625 1.15625q0 0.625 -0.265625 2.359375q-0.234375 1.453125 -0.390625 2.765625q-0.14063263 1.3125 -0.14063263 2.921875q0 0.90625 -0.375 1.3125q-0.359375 0.390625 -1.203125 0.390625q-0.796875 0 -1.15625 -0.40625q-0.359375 -0.421875 -0.359375 -1.234375q0 -0.953125 0.34375 -3.171875q0.28125 -1.90625 0.28125 -2.4375q0 -0.390625 -0.265625 -0.390625q-0.3125 0 -0.875 0.8125q-0.5625 0.796875 -1.15625 2.125q-0.578125 1.3125 -0.9375 2.78125q-0.265625 1.125 -0.625 1.53125q-0.34375 0.390625 -1.078125 0.390625zm18.03785 -10.515625q0.609375 0 0.859375 0.1875q0.25 0.171875 0.25 0.703125q0 0.28125 -0.015625 0.453125q-0.109375 0.75 -0.609375 3.84375q-0.359375 2.078125 -0.453125 2.75q-0.90625 6.203125 -2.46875 9.78125q-1.546875 3.59375 -4.125 3.59375q-1.234375 0 -2.0 -0.765625q-0.765625 -0.75 -0.765625 -1.96875q0 -1.703125 1.34375 -3.671875q1.34375 -1.953125 5.046875 -4.796875l0.140625 -0.9375q-0.40625 0.640625 -1.078125 1.0q-0.65625 0.34375 -1.296875 0.34375q-1.5 0 -2.390625 -1.078125q-0.875 -1.09375 -0.875 -2.84375q0 -1.921875 0.875 -3.625q0.890625 -1.71875 2.359375 -2.765625q1.484375 -1.046875 3.140625 -1.046875q0.53125 0 0.703125 0.203125q0.1875 0.203125 0.3125 0.734375q0.453125 -0.09375 1.046875 -0.09375zm-4.3125 8.09375q0.546875 0 1.046875 -0.671875q0.515625 -0.671875 0.734375 -1.921875l0.765625 -4.109375q-0.984375 0.03125 -1.828125 0.765625q-0.84375 0.71875 -1.34375 1.921875q-0.5 1.203125 -0.5 2.546875q0 0.734375 0.296875 1.109375q0.296875 0.359375 0.828125 0.359375zm-2.0 10.890625q0.609375 0 1.359375 -1.4375q0.765625 -1.4375 1.453125 -4.59375q-1.84375 1.59375 -2.671875 2.859375q-0.8125 1.28125 -0.8125 2.234375q0 0.40625 0.15625 0.671875q0.15625 0.265625 0.515625 0.265625zm11.447845 -8.46875q-1.125 0 -1.8125 -0.921875q-0.671875 -0.9375 -0.671875 -2.5625q0 -1.796875 0.234375 -3.296875q0.234375 -1.5 0.796875 -3.1875q0.234375 -0.71875 0.65625 -1.03125q0.4375 -0.3125 1.375 -0.3125q0.53125 0 0.734375 0.171875q0.203125 0.171875 0.203125 0.5q0 0.203125 -0.265625 1.296875q-0.234375 0.890625 -0.375 1.609375q-0.484375 2.515625 -0.484375 3.359375q0 0.5 0.109375 0.703125q0.125 0.203125 0.390625 0.203125q0.359375 0 0.90625 -0.71875q0.5625 -0.734375 1.171875 -2.203125q0.609375 -1.484375 1.171875 -3.578125q0.1875 -0.71875 0.578125 -1.03125q0.40625 -0.3125 1.1875 -0.3125q0.53125 0 0.75 0.28125q0.234375 0.28125 0.234375 0.828125q0 0.59375 -0.09375 1.328125q-0.09375 0.734375 -0.21875 1.5q-0.234375 1.53125 -0.375 2.796875q-0.140625 1.265625 -0.140625 2.875q0 0.90625 -0.375 1.3125q-0.375 0.390625 -1.21875 0.390625q-0.890625 0 -1.234375 -0.46875q-0.34375 -0.46875 -0.34375 -1.8125q0 -0.265625 0.046875 -1.1875q-0.40625 1.6875 -1.21875 2.578125q-0.796875 0.890625 -1.71875 0.890625zm11.305588 0q-1.359375 0 -2.21875 -1.078125q-0.84375 -1.09375 -0.84375 -2.84375q0 -1.921875 0.875 -3.625q0.890625 -1.71875 2.359375 -2.765625q1.484375 -1.046875 3.140625 -1.046875q0.53125 0 0.703125 0.203125q0.1875 0.203125 0.3125 0.734375q0.453125 -0.09375 1.0 -0.09375q0.578125 0 0.890625 0.296875q0.3125 0.28125 0.3125 0.8125q0 0.546875 -0.234375 1.90625q-0.265625 1.46875 -0.421875 2.8125q-0.140625 1.328125 -0.140625 2.984375q0 0.90625 -0.375 1.3125q-0.359375 0.390625 -1.203125 0.390625q-0.8125 0 -1.21875 -0.390625q-0.390625 -0.40625 -0.390625 -1.296875l0.03125 -0.375q-0.75 2.0625 -2.578125 2.0625zm0.9375 -2.421875q0.671875 0 1.21875 -0.9375q0.5625 -0.9375 1.0 -3.34375l0.453125 -2.421875q-0.984375 0.03125 -1.828125 0.765625q-0.84375 0.71875 -1.34375 1.921875q-0.5 1.203125 -0.5 2.546875q0 0.71875 0.265625 1.09375q0.28125 0.375 0.734375 0.375zm15.429474 -8.09375q0.609375 0 0.859375 0.1875q0.25 0.171875 0.25 0.703125q0 0.28125 -0.015625 0.453125q-0.109375 0.75 -0.609375 3.84375q-0.359375 2.078125 -0.453125 2.75q-0.90625 6.203125 -2.46875 9.78125q-1.546875 3.59375 -4.125 3.59375q-1.234375 0 -2.0 -0.765625q-0.765625 -0.75 -0.765625 -1.96875q0 -1.703125 1.34375 -3.671875q1.34375 -1.953125 5.046875 -4.796875l0.140625 -0.9375q-0.40625 0.640625 -1.078125 1.0q-0.65625 0.34375 -1.296875 0.34375q-1.5 0 -2.390625 -1.078125q-0.875 -1.09375 -0.875 -2.84375q0 -1.921875 0.875 -3.625q0.890625 -1.71875 2.359375 -2.765625q1.484375 -1.046875 3.140625 -1.046875q0.53125 0 0.703125 0.203125q0.1875 0.203125 0.3125 0.734375q0.453125 -0.09375 1.046875 -0.09375zm-4.3125 8.09375q0.546875 0 1.046875 -0.671875q0.515625 -0.671875 0.734375 -1.921875l0.765625 -4.109375q-0.984375 0.03125 -1.828125 0.765625q-0.84375 0.71875 -1.34375 1.921875q-0.5 1.203125 -0.5 2.546875q0 0.734375 0.296875 1.109375q0.296875 0.359375 0.828125 0.359375zm-2.0 10.890625q0.609375 0 1.359375 -1.4375q0.765625 -1.4375 1.453125 -4.59375q-1.84375 1.59375 -2.671875 2.859375q-0.8125 1.28125 -0.8125 2.234375q0 0.40625 0.15625 0.671875q0.15625 0.265625 0.515625 0.265625zm17.55722 -13.21875q0.3125 0 0.484375 0.28125q0.1875 0.28125 0.1875 0.796875q0 0.859375 -0.40625 1.484375q-0.671875 1.03125 -1.765625 1.609375q-1.09375 0.578125 -2.609375 0.578125q-2.296875 0 -3.578125 -1.375q-1.265625 -1.390625 -1.265625 -3.734375q0 -1.65625 0.6875 -3.078125q0.703125 -1.4375 1.9375 -2.28125q1.234375 -0.84375 2.796875 -0.84375q1.390625 0 2.21875 0.828125q0.84375 0.828125 0.84375 2.25q0 1.65625 -1.1875 2.84375q-1.1875 1.1875 -4.03125 1.875q0.5625 1.109375 1.9375 1.109375q0.984375 0 1.609375 -0.453125q0.640625 -0.453125 1.484375 -1.53125q0.296875 -0.359375 0.65625 -0.359375zm-3.9375 -4.203125q-0.890625 0 -1.5 1.03125q-0.609375 1.03125 -0.609375 2.5l0 0.046875q1.40625 -0.34375 2.21875 -1.015625q0.828125 -0.671875 0.828125 -1.5625q0 -0.453125 -0.265625 -0.71875q-0.25 -0.28125 -0.671875 -0.28125z" fill-rule="nonzero"/></g></svg>